<svg width="64" height="64" viewBox="0 0 64 64" fill="none" xmlns="http://www.w3.org/2000/svg">
  <circle cx="32" cy="32" r="30" fill="#4CAF50" stroke="#2E7D32" stroke-width="2"/>
  <polygon points="16,32 24,24 24,28 40,28 40,24 48,32 40,40 40,36 24,36 24,40" fill="#FFEB3B"/>
  <circle cx="32" cy="20" r="8" fill="#FF9800" stroke="#E65100" stroke-width="1"/>
  <circle cx="32" cy="20" r="1.5" fill="#E65100"/>
  <line x1="32" y1="20" x2="32" y2="14" stroke="#E65100" stroke-width="2"/>
  <line x1="32" y1="20" x2="36" y2="20" stroke="#E65100" stroke-width="1.5"/>
  <polygon points="32,6 34,10 38,8 36,12 40,14 36,16 38,20 34,18 32,22 30,18 26,20 28,16 24,14 28,12 26,8 30,10" fill="#FFD700"/>
  <text x="32" y="52" text-anchor="middle" fill="#2E7D32" font-family="Arial" font-size="6">AHEAD</text>
  <text x="32" y="59" text-anchor="middle" fill="#2E7D32" font-family="Arial" font-size="6">SCHEDULE</text>
</svg>