<svg width="64" height="64" viewBox="0 0 64 64" fill="none" xmlns="http://www.w3.org/2000/svg">
  <circle cx="32" cy="32" r="30" fill="#B71C1C" stroke="#7F0000" stroke-width="2"/>
  <polygon points="32,8 38,20 52,20 42,28 46,40 32,34 18,40 22,28 12,20 26,20" fill="#FFD700" stroke="#FFA000" stroke-width="1"/>
  <polygon points="32,12 36,20 44,20 38,26 40,32 32,28 24,32 26,26 20,20 28,20" fill="#FFC107"/>
  <rect x="20" y="42" width="24" height="12" fill="#424242" stroke="#212121" stroke-width="1"/>
  <rect x="22" y="44" width="20" height="8" fill="#616161"/>
  <polygon points="28,48 30,46 34,46 36,48 34,50 30,50" fill="#F44336"/>
  <circle cx="26" cy="48" r="1" fill="#FF5722"/>
  <circle cx="38" cy="48" r="1" fill="#FF5722"/>
  <polygon points="16,20 12,16 20,18" fill="#FFEB3B"/>
  <polygon points="48,20 52,16 44,18" fill="#FFEB3B"/>
  <polygon points="32,56 28,60 36,58" fill="#FFD700"/>
  <text x="32" y="7" text-anchor="middle" fill="#FFD700" font-family="Arial" font-size="6">BOSS</text>
  <text x="32" y="62" text-anchor="middle" fill="#FFD700" font-family="Arial" font-size="6">SLAYER</text>
</svg>