<svg width="64" height="64" viewBox="0 0 64 64" fill="none" xmlns="http://www.w3.org/2000/svg">
  <circle cx="32" cy="32" r="30" fill="#9C27B0" stroke="#6A1B9A" stroke-width="2"/>
  <circle cx="32" cy="24" r="8" fill="#FFEB3B" stroke="#F57F17" stroke-width="2"/>
  <polygon points="32,16 30,20 26,18 28,22 24,24 28,26 26,30 30,28 32,32 34,28 38,30 36,26 40,24 36,22 38,18 34,20" fill="#FFD700"/>
  <rect x="28" y="32" width="8" height="4" fill="#FF5722"/>
  <rect x="26" y="36" width="12" height="8" fill="#795548" stroke="#5D4037" stroke-width="1"/>
  <rect x="28" y="38" width="8" height="4" fill="#8D6E63"/>
  <rect x="30" y="44" width="4" height="8" fill="#A1887F"/>
  <ellipse cx="32" cy="53" rx="3" ry="1" fill="#5D4037"/>
  <circle cx="16" cy="16" r="2" fill="#E91E63"/>
  <circle cx="48" cy="16" r="2" fill="#2196F3"/>
  <circle cx="16" cy="48" r="2" fill="#4CAF50"/>
  <circle cx="48" cy="48" r="2" fill="#FF9800"/>
  <text x="32" y="8" text-anchor="middle" fill="#6A1B9A" font-family="Arial" font-size="6">CREATIVE</text>
  <text x="32" y="62" text-anchor="middle" fill="#6A1B9A" font-family="Arial" font-size="6">GENIUS</text>
</svg>