<svg width="64" height="64" viewBox="0 0 64 64" fill="none" xmlns="http://www.w3.org/2000/svg">
  <circle cx="32" cy="32" r="30" fill="#673AB7" stroke="#4527A0" stroke-width="2"/>
  <circle cx="32" cy="32" r="20" fill="#9C27B0" stroke="#6A1B9A" stroke-width="2"/>
  <circle cx="32" cy="32" r="12" fill="#E91E63" stroke="#AD1457" stroke-width="2"/>
  <circle cx="32" cy="32" r="6" fill="#F44336" stroke="#C62828" stroke-width="2"/>
  <circle cx="32" cy="32" r="2" fill="#FFEB3B"/>
  <line x1="10" y1="32" x2="22" y2="32" stroke="#FFEB3B" stroke-width="2"/>
  <line x1="42" y1="32" x2="54" y2="32" stroke="#FFEB3B" stroke-width="2"/>
  <line x1="32" y1="10" x2="32" y2="22" stroke="#FFEB3B" stroke-width="2"/>
  <line x1="32" y1="42" x2="32" y2="54" stroke="#FFEB3B" stroke-width="2"/>
  <line x1="18" y1="18" x2="26" y2="26" stroke="#FFC107" stroke-width="1.5"/>
  <line x1="38" y1="26" x2="46" y2="18" stroke="#FFC107" stroke-width="1.5"/>
  <line x1="26" y1="38" x2="18" y2="46" stroke="#FFC107" stroke-width="1.5"/>
  <line x1="46" y1="46" x2="38" y2="38" stroke="#FFC107" stroke-width="1.5"/>
  <polygon points="8,30 10,32 8,34 6,32" fill="#FFD700"/>
  <polygon points="56,30 58,32 56,34 54,32" fill="#FFD700"/>
  <polygon points="30,8 32,10 34,8 32,6" fill="#FFD700"/>
  <polygon points="30,56 32,58 34,56 32,54" fill="#FFD700"/>
  <text x="32" y="7" text-anchor="middle" fill="#4527A0" font-family="Arial" font-size="6">FOCUS</text>
  <text x="32" y="61" text-anchor="middle" fill="#4527A0" font-family="Arial" font-size="6">MASTER</text>
</svg>