<svg width="64" height="64" viewBox="0 0 64 64" fill="none" xmlns="http://www.w3.org/2000/svg">
  <circle cx="32" cy="32" r="30" fill="#4CAF50" stroke="#2E7D32" stroke-width="2"/>
  <polygon points="32,8 38,20 52,20 42,28 46,40 32,34 18,40 22,28 12,20 26,20" fill="#FFD700" stroke="#FFA000" stroke-width="1"/>
  <polygon points="32,12 36,20 44,20 38,26 40,32 32,28 24,32 26,26 20,20 28,20" fill="#FFC107"/>
  <ellipse cx="20" cy="50" rx="12" ry="6" fill="#66BB6A"/>
  <ellipse cx="32" cy="48" rx="16" ry="8" fill="#81C784"/>
  <ellipse cx="44" cy="50" rx="12" ry="6" fill="#A5D6A7"/>
  <polygon points="16,44 14,50 18,46" fill="#8BC34A"/>
  <polygon points="24,42 22,48 26,44" fill="#8BC34A"/>
  <polygon points="32,40 30,46 34,42" fill="#8BC34A"/>
  <polygon points="40,42 38,48 42,44" fill="#8BC34A"/>
  <polygon points="48,44 46,50 50,46" fill="#8BC34A"/>
  <circle cx="16" cy="16" r="2" fill="#FFEB3B"/>
  <circle cx="48" cy="16" r="2" fill="#FFEB3B"/>
  <text x="32" y="7" text-anchor="middle" fill="#2E7D32" font-family="Arial" font-size="6">GRASSLAND</text>
  <text x="32" y="62" text-anchor="middle" fill="#2E7D32" font-family="Arial" font-size="6">HERO</text>
</svg>