<svg width="64" height="64" viewBox="0 0 64 64" fill="none" xmlns="http://www.w3.org/2000/svg">
  <circle cx="32" cy="32" r="30" fill="#F44336" stroke="#C62828" stroke-width="2"/>
  <polygon points="32,8 38,20 52,20 42,28 46,40 32,34 18,40 22,28 12,20 26,20" fill="#FFD700" stroke="#FFA000" stroke-width="1"/>
  <polygon points="32,12 36,20 44,20 38,26 40,32 32,28 24,32 26,26 20,20 28,20" fill="#FFC107"/>
  <polygon points="24,44 20,48 28,46" fill="#4CAF50"/>
  <polygon points="32,42 28,46 36,44" fill="#4CAF50"/>
  <polygon points="40,44 44,48 36,46" fill="#4CAF50"/>
  <polygon points="28,50 24,54 32,52" fill="#4CAF50"/>
  <polygon points="36,50 40,54 32,52" fill="#4CAF50"/>
  <circle cx="16" cy="16" r="3" fill="#FFEB3B"/>
  <circle cx="48" cy="16" r="3" fill="#FFEB3B"/>
  <polygon points="16,10 17,14 21,13 18,17 22,18 18,19 21,23 17,22 16,26 15,22 11,23 14,19 10,18 14,17 11,13 15,14" fill="#FFD700"/>
  <polygon points="48,10 49,14 53,13 50,17 54,18 50,19 53,23 49,22 48,26 47,22 43,23 46,19 42,18 46,17 43,13 47,14" fill="#FFD700"/>
  <text x="32" y="7" text-anchor="middle" fill="#C62828" font-family="Arial" font-size="6">HOLIDAY</text>
  <text x="32" y="62" text-anchor="middle" fill="#C62828" font-family="Arial" font-size="6">HERO</text>
</svg>