<svg width="64" height="64" viewBox="0 0 64 64" fill="none" xmlns="http://www.w3.org/2000/svg">
  <circle cx="32" cy="32" r="30" fill="#FF9800" stroke="#E65100" stroke-width="2"/>
  <rect x="16" y="16" width="32" height="24" fill="#FFF176" stroke="#F57F17" stroke-width="2"/>
  <rect x="18" y="18" width="28" height="20" fill="#FFFDE7"/>
  <rect x="20" y="20" width="4" height="3" fill="#4CAF50"/>
  <rect x="26" y="20" width="4" height="3" fill="#4CAF50"/>
  <rect x="32" y="20" width="4" height="3" fill="#4CAF50"/>
  <rect x="38" y="20" width="4" height="3" fill="#4CAF50"/>
  <rect x="20" y="25" width="4" height="3" fill="#4CAF50"/>
  <rect x="26" y="25" width="4" height="3" fill="#4CAF50"/>
  <rect x="32" y="25" width="4" height="3" fill="#4CAF50"/>
  <rect x="38" y="25" width="4" height="3" fill="#4CAF50"/>
  <rect x="20" y="30" width="4" height="3" fill="#4CAF50"/>
  <rect x="26" y="30" width="4" height="3" fill="#4CAF50"/>
  <rect x="32" y="30" width="4" height="3" fill="#4CAF50"/>
  <rect x="38" y="30" width="4" height="3" fill="#4CAF50"/>
  <rect x="20" y="35" width="4" height="3" fill="#4CAF50"/>
  <rect x="26" y="35" width="4" height="3" fill="#4CAF50"/>
  <rect x="32" y="35" width="4" height="3" fill="#4CAF50"/>
  <polygon points="32,8 36,14 42,12 38,18 44,20 38,22 42,28 36,26 32,32 28,26 22,28 26,22 20,20 26,18 22,12 28,14" fill="#FFD700"/>
  <text x="32" y="48" text-anchor="middle" fill="#E65100" font-family="Arial" font-size="6">MONTHLY</text>
  <text x="32" y="58" text-anchor="middle" fill="#E65100" font-family="Arial" font-size="6">PERFECT</text>
</svg>