<svg width="64" height="64" viewBox="0 0 64 64" fill="none" xmlns="http://www.w3.org/2000/svg">
  <circle cx="32" cy="32" r="30" fill="#FFD700" stroke="#FFA000" stroke-width="2"/>
  <polygon points="32,8 38,20 52,20 42,28 46,40 32,34 18,40 22,28 12,20 26,20" fill="#FF5722" stroke="#D84315" stroke-width="1"/>
  <polygon points="32,12 36,20 44,20 38,26 40,32 32,28 24,32 26,26 20,20 28,20" fill="#E65100"/>
  <text x="32" y="46" text-anchor="middle" fill="#FFA000" font-family="Arial" font-size="10" font-weight="bold">2025</text>
  <polygon points="16,48 12,44 20,46" fill="#FFEB3B"/>
  <polygon points="48,48 52,44 44,46" fill="#FFEB3B"/>
  <polygon points="32,56 28,52 36,54" fill="#FFD700"/>
  <circle cx="12" cy="12" r="2" fill="#FFEB3B"/>
  <circle cx="52" cy="12" r="2" fill="#FFEB3B"/>
  <polygon points="12,8 13,10 15,9 14,11 16,12 14,13 15,15 13,14 12,16 11,14 9,15 10,13 8,12 10,11 9,9 11,10" fill="#FFD700"/>
  <polygon points="52,8 53,10 55,9 54,11 56,12 54,13 55,15 53,14 52,16 51,14 49,15 50,13 48,12 50,11 49,9 51,10" fill="#FFD700"/>
  <text x="32" y="7" text-anchor="middle" fill="#FFA000" font-family="Arial" font-size="6">NEW</text>
  <text x="32" y="62" text-anchor="middle" fill="#FFA000" font-family="Arial" font-size="6">YEAR</text>
</svg>