<svg width="64" height="64" viewBox="0 0 64 64" fill="none" xmlns="http://www.w3.org/2000/svg">
  <circle cx="32" cy="32" r="30" fill="#3F51B5" stroke="#1A237E" stroke-width="2"/>
  <circle cx="32" cy="22" r="10" fill="#5D4037"/>
  <circle cx="28" cy="20" r="3" fill="#FFEB3B"/>
  <circle cx="36" cy="20" r="3" fill="#FFEB3B"/>
  <circle cx="28" cy="20" r="1.5" fill="#000"/>
  <circle cx="36" cy="20" r="1.5" fill="#000"/>
  <polygon points="32,24 30,28 34,28" fill="#FF9800"/>
  <ellipse cx="32" cy="35" rx="14" ry="10" fill="#8D6E63"/>
  <polygon points="18,30 14,26 20,28" fill="#6D4C41"/>
  <polygon points="46,30 50,26 44,28" fill="#6D4C41"/>
  <ellipse cx="32" cy="42" rx="10" ry="5" fill="#A1887F"/>
  <polygon points="25,48 22,52 28,50" fill="#5D4037"/>
  <polygon points="39,48 42,52 36,50" fill="#5D4037"/>
  <circle cx="20" cy="12" r="2" fill="#FFEB3B" opacity="0.6"/>
  <circle cx="48" cy="8" r="1.5" fill="#FFEB3B" opacity="0.8"/>
  <circle cx="52" cy="18" r="1" fill="#FFEB3B" opacity="0.7"/>
  <text x="32" y="58" text-anchor="middle" fill="#1A237E" font-family="Arial" font-size="7">NIGHT OWL</text>
</svg>