<svg width="64" height="64" viewBox="0 0 64 64" fill="none" xmlns="http://www.w3.org/2000/svg">
  <circle cx="32" cy="32" r="30" fill="#9C27B0" stroke="#6A1B9A" stroke-width="2"/>
  <polygon points="32,6 37,18 50,18 40,26 44,38 32,31 20,38 24,26 14,18 27,18" fill="#FFD700" stroke="#FFA000" stroke-width="1"/>
  <polygon points="32,10 35,18 42,18 37,22 39,30 32,26 25,30 27,22 22,18 29,18" fill="#FFC107"/>
  <polygon points="32,14 33,18 36,18 34,20 35,24 32,22 29,24 30,20 28,18 31,18" fill="#FF9800"/>
  <polygon points="18,12 20,16 24,16 21,18 22,22 18,20 14,22 15,18 12,16 16,16" fill="#FFEB3B"/>
  <polygon points="46,12 48,16 52,16 49,18 50,22 46,20 42,22 43,18 40,16 44,16" fill="#FFEB3B"/>
  <polygon points="12,40 14,44 18,44 15,46 16,50 12,48 8,50 9,46 6,44 10,44" fill="#FFEB3B"/>
  <polygon points="52,40 54,44 58,44 55,46 56,50 52,48 48,50 49,46 46,44 50,44" fill="#FFEB3B"/>
  <circle cx="32" cy="45" r="3" fill="#E91E63"/>
  <text x="32" y="48" text-anchor="middle" fill="#FFEB3B" font-family="Arial" font-size="8" font-weight="bold">+</text>
  <text x="32" y="59" text-anchor="middle" fill="#6A1B9A" font-family="Arial" font-size="6">OVERACHIEVER</text>
</svg>