<svg width="64" height="64" viewBox="0 0 64 64" fill="none" xmlns="http://www.w3.org/2000/svg">
  <circle cx="32" cy="32" r="30" fill="#F44336" stroke="#C62828" stroke-width="2"/>
  <polygon points="32,8 38,20 52,20 42,28 46,40 32,34 18,40 22,28 12,20 26,20" fill="#FFD700" stroke="#FFA000" stroke-width="1"/>
  <polygon points="32,12 36,20 44,20 38,26 40,32 32,28 24,32 26,26 20,20 28,20" fill="#FFC107"/>
  <rect x="16" y="42" width="32" height="12" fill="#FFEB3B" stroke="#F57F17" stroke-width="1"/>
  <rect x="18" y="44" width="28" height="8" fill="#FFF176"/>
  <rect x="20" y="46" width="6" height="4" fill="#F44336"/>
  <rect x="28" y="46" width="4" height="4" fill="#FF9800"/>
  <rect x="34" y="46" width="4" height="4" fill="#4CAF50"/>
  <rect x="40" y="46" width="6" height="4" fill="#2196F3"/>
  <text x="23" y="49" text-anchor="middle" fill="#FFF" font-family="Arial" font-size="6" font-weight="bold">!</text>
  <text x="32" y="58" text-anchor="middle" fill="#C62828" font-family="Arial" font-size="6">PRIORITY</text>
  <text x="32" y="7" text-anchor="middle" fill="#C62828" font-family="Arial" font-size="6">PERFECT</text>
</svg>