<svg width="64" height="64" viewBox="0 0 64 64" fill="none" xmlns="http://www.w3.org/2000/svg">
  <circle cx="32" cy="32" r="30" fill="#607D8B" stroke="#37474F" stroke-width="2"/>
  <polygon points="32,8 38,20 52,20 42,28 46,40 32,34 18,40 22,28 12,20 26,20" fill="#FFD700" stroke="#FFA000" stroke-width="1"/>
  <polygon points="32,12 36,20 44,20 38,26 40,32 32,28 24,32 26,26 20,20 28,20" fill="#FFC107"/>
  <rect x="16" y="42" width="32" height="12" fill="#ECEFF1" stroke="#90A4AE" stroke-width="1"/>
  <rect x="18" y="44" width="28" height="8" fill="#F5F5F5"/>
  <rect x="20" y="45" width="6" height="6" fill="#4CAF50"/>
  <rect x="28" y="45" width="6" height="6" fill="#FF9800"/>
  <rect x="36" y="45" width="6" height="6" fill="#2196F3"/>
  <text x="23" y="49" text-anchor="middle" fill="#FFF" font-family="Arial" font-size="6" font-weight="bold">Q1</text>
  <text x="31" y="49" text-anchor="middle" fill="#FFF" font-family="Arial" font-size="6" font-weight="bold">Q2</text>
  <text x="39" y="49" text-anchor="middle" fill="#FFF" font-family="Arial" font-size="6" font-weight="bold">Q3</text>
  <text x="32" y="58" text-anchor="middle" fill="#37474F" font-family="Arial" font-size="6">QUARTERLY</text>
  <text x="32" y="7" text-anchor="middle" fill="#37474F" font-family="Arial" font-size="6">CHAMPION</text>
</svg>