<svg width="64" height="64" viewBox="0 0 64 64" fill="none" xmlns="http://www.w3.org/2000/svg">
  <circle cx="32" cy="32" r="30" fill="#424242" stroke="#212121" stroke-width="2"/>
  <polygon points="32,8 38,20 52,20 42,28 46,40 32,34 18,40 22,28 12,20 26,20" fill="#FFEB3B" stroke="#F57F17" stroke-width="1"/>
  <polygon points="32,12 36,20 44,20 38,26 40,32 32,28 24,32 26,26 20,20 28,20" fill="#FFD700"/>
  <ellipse cx="20" cy="45" rx="8" ry="5" fill="#616161" opacity="0.7"/>
  <ellipse cx="32" cy="48" rx="12" ry="6" fill="#757575" opacity="0.5"/>
  <ellipse cx="44" cy="45" rx="8" ry="5" fill="#616161" opacity="0.7"/>
  <circle cx="32" cy="42" r="4" fill="#263238"/>
  <circle cx="29" cy="40" r="1" fill="#FFEB3B"/>
  <circle cx="35" cy="40" r="1" fill="#FFEB3B"/>
  <polygon points="32,44 30,46 34,46" fill="#37474F"/>
  <text x="32" y="58" text-anchor="middle" fill="#FFEB3B" font-family="Arial" font-size="6">SHADOW</text>
  <text x="32" y="7" text-anchor="middle" fill="#FFEB3B" font-family="Arial" font-size="6">MASTER</text>
</svg>