<svg width="64" height="64" viewBox="0 0 64 64" fill="none" xmlns="http://www.w3.org/2000/svg">
  <circle cx="32" cy="32" r="30" fill="#E91E63" stroke="#AD1457" stroke-width="2"/>
  <ellipse cx="22" cy="28" rx="8" ry="12" fill="#FFEB3B" stroke="#F57F17" stroke-width="1"/>
  <ellipse cx="42" cy="28" rx="8" ry="12" fill="#FFD700" stroke="#FFA000" stroke-width="1"/>
  <ellipse cx="20" cy="24" rx="6" ry="8" fill="#FFC107"/>
  <ellipse cx="44" cy="24" rx="6" ry="8" fill="#FF9800"/>
  <circle cx="18" cy="20" r="2" fill="#FF5722"/>
  <circle cx="46" cy="20" r="2" fill="#FF5722"/>
  <circle cx="20" cy="28" r="1.5" fill="#2196F3"/>
  <circle cx="44" cy="28" r="1.5" fill="#9C27B0"/>
  <ellipse cx="32" cy="40" rx="4" ry="8" fill="#795548"/>
  <circle cx="32" cy="36" r="3" fill="#FFAB91"/>
  <circle cx="30" cy="34" r="1" fill="#5D4037"/>
  <circle cx="34" cy="34" r="1" fill="#5D4037"/>
  <polygon points="32,38 30,40 34,40" fill="#D84315"/>
  <rect x="30" y="48" width="4" height="6" fill="#8D6E63"/>
  <ellipse cx="32" cy="55" rx="3" ry="1" fill="#5D4037"/>
  <text x="32" y="8" text-anchor="middle" fill="#AD1457" font-family="Arial" font-size="6">SOCIAL</text>
  <text x="32" y="62" text-anchor="middle" fill="#AD1457" font-family="Arial" font-size="6">BUTTERFLY</text>
</svg>