<svg width="64" height="64" viewBox="0 0 64 64" fill="none" xmlns="http://www.w3.org/2000/svg">
  <circle cx="32" cy="32" r="30" fill="#FFC107" stroke="#FF8F00" stroke-width="2"/>
  <polygon points="8,32 16,28 16,36" fill="#FFEB3B"/>
  <polygon points="12,32 20,30 20,34" fill="#FFD700"/>
  <polygon points="16,32 24,31 24,33" fill="#FFC107"/>
  <circle cx="40" cy="24" r="6" fill="#795548"/>
  <circle cx="37" cy="22" r="1.5" fill="#F44336"/>
  <circle cx="43" cy="22" r="1.5" fill="#F44336"/>
  <polygon points="40,26 38,29 42,29" fill="#D84315"/>
  <ellipse cx="40" cy="34" rx="8" ry="6" fill="#8D6E63"/>
  <ellipse cx="40" cy="40" rx="5" ry="4" fill="#A1887F"/>
  <polygon points="32,44 28,49 36,47" fill="#6D4C41"/>
  <polygon points="48,44 52,49 44,47" fill="#6D4C41"/>
  <text x="32" y="44" text-anchor="middle" fill="#FF8F00" font-family="Arial" font-size="12" font-weight="bold">3</text>
  <text x="32" y="56" text-anchor="middle" fill="#FF8F00" font-family="Arial" font-size="6">SPEED</text>
</svg>