<svg width="64" height="64" viewBox="0 0 64 64" fill="none" xmlns="http://www.w3.org/2000/svg">
  <circle cx="32" cy="32" r="30" fill="#E65100" stroke="#BF360C" stroke-width="2"/>
  <polygon points="32,4 40,16 56,16 44,26 49,40 32,32 15,40 20,26 8,16 24,16" fill="#FFD700" stroke="#FFA000" stroke-width="1"/>
  <polygon points="32,6 38,16 50,16 41,24 45,34 32,28 19,34 23,24 14,16 26,16" fill="#FFC107"/>
  <polygon points="32,8 36,16 46,16 39,22 42,30 32,26 22,30 25,22 18,16 28,16" fill="#FF9800"/>
  <polygon points="32,10 34,16 40,16 36,20 38,26 32,23 26,26 28,20 24,16 30,16" fill="#FFD700"/>
  <polygon points="32,12 33,16 36,16 34,18 35,22 32,20 29,22 30,18 28,16 31,16" fill="#FFEB3B"/>
  <circle cx="32" cy="18" r="1.5" fill="#FFF176"/>
  <text x="32" y="46" text-anchor="middle" fill="#BF360C" font-family="Arial" font-size="8" font-weight="bold">2500</text>
  <text x="32" y="58" text-anchor="middle" fill="#BF360C" font-family="Arial" font-size="6">TASKS</text>
</svg>