<svg width="64" height="64" viewBox="0 0 64 64" fill="none" xmlns="http://www.w3.org/2000/svg">
  <circle cx="32" cy="32" r="30" fill="#E91E63" stroke="#AD1457" stroke-width="2"/>
  <polygon points="32,2 42,14 58,14 46,24 51,38 32,30 13,38 18,24 6,14 22,14" fill="#FFD700" stroke="#FFA000" stroke-width="1"/>
  <polygon points="32,4 40,14 54,14 44,22 48,34 32,28 16,34 20,22 10,14 24,14" fill="#FFC107"/>
  <polygon points="32,6 38,14 50,14 42,20 45,30 32,26 19,30 22,20 14,14 26,14" fill="#FF9800"/>
  <polygon points="32,8 36,14 46,14 40,18 42,26 32,22 22,26 24,18 18,14 28,14" fill="#FFD700"/>
  <polygon points="32,10 34,14 40,14 36,16 38,22 32,19 26,22 28,16 24,14 30,14" fill="#FFEB3B"/>
  <polygon points="32,12 33,14 36,14 34,15 35,18 32,16 29,18 30,15 28,14 31,14" fill="#FFF176"/>
  <circle cx="32" cy="16" r="1" fill="#FFF"/>
  <circle cx="32" cy="44" r="6" fill="#FFEB3B" stroke="#F57F17" stroke-width="2"/>
  <text x="32" y="48" text-anchor="middle" fill="#AD1457" font-family="Arial" font-size="8" font-weight="bold">∞</text>
  <text x="32" y="58" text-anchor="middle" fill="#AD1457" font-family="Arial" font-size="6">TASK</text>
  <text x="32" y="7" text-anchor="middle" fill="#AD1457" font-family="Arial" font-size="6">IMMORTAL</text>
</svg>