<svg width="64" height="64" viewBox="0 0 64 64" fill="none" xmlns="http://www.w3.org/2000/svg">
  <circle cx="32" cy="32" r="30" fill="#2196F3" stroke="#1976D2" stroke-width="2"/>
  <circle cx="24" cy="20" r="6" fill="#FFAB91"/>
  <circle cx="40" cy="20" r="6" fill="#FFAB91"/>
  <circle cx="32" cy="28" r="6" fill="#FFAB91"/>
  <circle cx="22" cy="18" r="1.5" fill="#5D4037"/>
  <circle cx="38" cy="18" r="1.5" fill="#5D4037"/>
  <circle cx="30" cy="26" r="1.5" fill="#5D4037"/>
  <circle cx="42" cy="18" r="1.5" fill="#5D4037"/>
  <circle cx="34" cy="26" r="1.5" fill="#5D4037"/>
  <ellipse cx="24" cy="30" rx="4" ry="6" fill="#FF7043"/>
  <ellipse cx="40" cy="30" rx="4" ry="6" fill="#FF7043"/>
  <ellipse cx="32" cy="38" rx="4" ry="6" fill="#FF7043"/>
  <polygon points="24,36 20,40 28,38" fill="#6D4C41"/>
  <polygon points="40,36 44,40 36,38" fill="#6D4C41"/>
  <polygon points="32,44 28,48 36,46" fill="#6D4C41"/>
  <polygon points="32,8 36,14 42,12 38,18 44,20 38,22 42,28 36,26 32,32 28,26 22,28 26,22 20,20 26,18 22,12 28,14" fill="#FFD700"/>
  <text x="32" y="58" text-anchor="middle" fill="#1976D2" font-family="Arial" font-size="6">TEAM</text>
  <text x="32" y="7" text-anchor="middle" fill="#1976D2" font-family="Arial" font-size="6">PLAYER</text>
</svg>