<svg width="64" height="64" viewBox="0 0 64 64" fill="none" xmlns="http://www.w3.org/2000/svg">
  <circle cx="32" cy="32" r="30" fill="#37474F" stroke="#263238" stroke-width="2"/>
  <circle cx="32" cy="32" r="20" fill="#ECEFF1" stroke="#607D8B" stroke-width="2"/>
  <circle cx="32" cy="32" r="2" fill="#263238"/>
  <line x1="32" y1="32" x2="32" y2="18" stroke="#263238" stroke-width="3"/>
  <line x1="32" y1="32" x2="42" y2="32" stroke="#263238" stroke-width="2"/>
  <circle cx="32" cy="14" r="1" fill="#F44336"/>
  <circle cx="50" cy="32" r="1" fill="#F44336"/>
  <circle cx="32" cy="50" r="1" fill="#F44336"/>
  <circle cx="14" cy="32" r="1" fill="#F44336"/>
  <text x="32" y="16" text-anchor="middle" fill="#263238" font-family="Arial" font-size="8" font-weight="bold">12</text>
  <text x="48" y="36" text-anchor="middle" fill="#263238" font-family="Arial" font-size="8" font-weight="bold">3</text>
  <text x="32" y="52" text-anchor="middle" fill="#263238" font-family="Arial" font-size="8" font-weight="bold">6</text>
  <text x="18" y="36" text-anchor="middle" fill="#263238" font-family="Arial" font-size="8" font-weight="bold">9</text>
  <polygon points="32,4 34,8 38,6 36,10 40,12 36,14 38,18 34,16 32,20 30,16 26,18 28,14 24,12 28,10 26,6 30,8" fill="#FFD700"/>
  <text x="32" y="62" text-anchor="middle" fill="#263238" font-family="Arial" font-size="6">TIME MASTER</text>
</svg>