<svg width="64" height="64" viewBox="0 0 64 64" fill="none" xmlns="http://www.w3.org/2000/svg">
  <circle cx="32" cy="32" r="30" fill="#607D8B" stroke="#37474F" stroke-width="2"/>
  <rect x="16" y="20" width="32" height="24" fill="#90A4AE" stroke="#546E7A" stroke-width="2"/>
  <rect x="18" y="22" width="28" height="20" fill="#ECEFF1"/>
  <rect x="20" y="24" width="24" height="16" fill="#263238"/>
  <text x="32" y="30" text-anchor="middle" fill="#4CAF50" font-family="monospace" font-size="8" font-weight="bold">XP</text>
  <text x="32" y="36" text-anchor="middle" fill="#4CAF50" font-family="monospace" font-size="6">+100</text>
  <rect x="22" y="26" width="20" height="2" fill="#4CAF50"/>
  <rect x="22" y="30" width="16" height="2" fill="#FF9800"/>
  <rect x="22" y="34" width="18" height="2" fill="#2196F3"/>
  <circle cx="26" cy="16" r="2" fill="#FF5722"/>
  <circle cx="38" cy="16" r="2" fill="#FF5722"/>
  <rect x="30" y="18" width="4" height="2" fill="#FFEB3B"/>
  <polygon points="32,8 36,14 42,12 38,18 44,20 38,22 42,28 36,26 32,32 28,26 22,28 26,22 20,20 26,18 22,12 28,14" fill="#FFD700"/>
  <text x="32" y="52" text-anchor="middle" fill="#37474F" font-family="Arial" font-size="6">XP</text>
  <text x="32" y="58" text-anchor="middle" fill="#37474F" font-family="Arial" font-size="6">MACHINE</text>
</svg>