<svg width="64" height="64" viewBox="0 0 64 64" fill="none" xmlns="http://www.w3.org/2000/svg">
  <circle cx="32" cy="32" r="30" fill="#4CAF50" stroke="#2E7D32" stroke-width="2"/>
  <polygon points="32,8 38,20 52,20 42,28 46,40 32,34 18,40 22,28 12,20 26,20" fill="#FFD700" stroke="#FFA000" stroke-width="1"/>
  <polygon points="32,12 36,20 44,20 38,26 40,32 32,28 24,32 26,26 20,20 28,20" fill="#FFC107"/>
  <path d="M 16,50 Q 20,46 24,50 Q 28,54 32,50 Q 36,46 40,50 Q 44,54 48,50" stroke="#FF5722" stroke-width="3" fill="none"/>
  <polygon points="14,48 18,44 22,48" fill="#FF9800"/>
  <polygon points="42,48 46,44 50,48" fill="#FF9800"/>
  <circle cx="32" cy="42" r="3" fill="#E91E63"/>
  <text x="32" y="45" text-anchor="middle" fill="#FFEB3B" font-family="Arial" font-size="8" font-weight="bold">↑</text>
  <text x="32" y="58" text-anchor="middle" fill="#2E7D32" font-family="Arial" font-size="6">COMEBACK</text>
  <text x="32" y="7" text-anchor="middle" fill="#2E7D32" font-family="Arial" font-size="6">KING</text>
</svg>