<svg width="64" height="64" viewBox="0 0 64 64" fill="none" xmlns="http://www.w3.org/2000/svg">
  <circle cx="32" cy="32" r="30" fill="#FF5722" stroke="#D84315" stroke-width="2"/>
  <circle cx="32" cy="28" r="12" fill="#FFEB3B" stroke="#F57F17" stroke-width="2"/>
  <circle cx="32" cy="28" r="2" fill="#D84315"/>
  <line x1="32" y1="28" x2="32" y2="20" stroke="#D84315" stroke-width="3"/>
  <line x1="32" y1="28" x2="38" y2="28" stroke="#D84315" stroke-width="2"/>
  <polygon points="32,16 34,18 36,16 34,20 38,22 34,24 36,28 34,26 32,28 30,26 28,28 30,24 26,22 30,20 28,16 30,18" fill="#FF9800"/>
  <polygon points="20,45 12,40 28,48" fill="#FFC107"/>
  <polygon points="44,45 52,40 36,48" fill="#FFC107"/>
  <polygon points="32,45 28,50 36,50" fill="#FFD700"/>
  <circle cx="16" cy="16" r="3" fill="#F44336"/>
  <circle cx="48" cy="16" r="3" fill="#F44336"/>
  <polygon points="16,10 17,14 21,13 18,17 22,18 18,19 21,23 17,22 16,26 15,22 11,23 14,19 10,18 14,17 11,13 15,14" fill="#FFEB3B"/>
  <polygon points="48,10 49,14 53,13 50,17 54,18 50,19 53,23 49,22 48,26 47,22 43,23 46,19 42,18 46,17 43,13 47,14" fill="#FFEB3B"/>
  <text x="32" y="7" text-anchor="middle" fill="#D84315" font-family="Arial" font-size="6">DEADLINE</text>
  <text x="32" y="62" text-anchor="middle" fill="#D84315" font-family="Arial" font-size="6">DESTROYER</text>
</svg>