<svg width="64" height="64" viewBox="0 0 64 64" fill="none" xmlns="http://www.w3.org/2000/svg">
  <circle cx="32" cy="32" r="30" fill="#263238" stroke="#000000" stroke-width="2"/>
  <circle cx="32" cy="22" r="8" fill="#37474F"/>
  <circle cx="29" cy="20" r="1.5" fill="#F44336"/>
  <circle cx="35" cy="20" r="1.5" fill="#F44336"/>
  <rect x="28" y="30" width="8" height="16" fill="#424242" stroke="#212121" stroke-width="1"/>
  <rect x="30" y="32" width="4" height="12" fill="#616161"/>
  <polygon points="26,46 20,52 32,48 44,52 38,46 32,50" fill="#795548"/>
  <polygon points="22,28 18,24 26,26" fill="#607D8B"/>
  <polygon points="42,28 46,24 38,26" fill="#607D8B"/>
  <circle cx="32" cy="18" r="12" fill="#37474F" stroke="#263238" stroke-width="1"/>
  <circle cx="32" cy="28" r="8" fill="#FFEB3B" stroke="#F57F17" stroke-width="1"/>
  <circle cx="32" cy="28" r="1.5" fill="#212121"/>
  <line x1="32" y1="28" x2="32" y2="22" stroke="#212121" stroke-width="2"/>
  <line x1="32" y1="28" x2="36" y2="28" stroke="#212121" stroke-width="1.5"/>
  <text x="32" y="8" text-anchor="middle" fill="#FFEB3B" font-family="Arial" font-size="6">DEADLINE</text>
  <text x="32" y="62" text-anchor="middle" fill="#FFEB3B" font-family="Arial" font-size="6">NINJA</text>
</svg>