<svg width="64" height="64" viewBox="0 0 64 64" fill="none" xmlns="http://www.w3.org/2000/svg">
  <circle cx="32" cy="32" r="30" fill="#FF9800" stroke="#E65100" stroke-width="2"/>
  <polygon points="32,8 38,20 52,20 42,28 46,40 32,34 18,40 22,28 12,20 26,20" fill="#FFD700" stroke="#FFA000" stroke-width="1"/>
  <polygon points="32,12 36,20 44,20 38,26 40,32 32,28 24,32 26,26 20,20 28,20" fill="#FFC107"/>
  <ellipse cx="20" cy="50" rx="8" ry="4" fill="#8D6E63"/>
  <ellipse cx="32" cy="48" rx="12" ry="6" fill="#A1887F"/>
  <ellipse cx="44" cy="50" rx="8" ry="4" fill="#795548"/>
  <polygon points="16,46 12,42 20,44" fill="#D7CCC8"/>
  <polygon points="32,42 28,38 36,40" fill="#D7CCC8"/>
  <polygon points="48,46 52,42 44,44" fill="#D7CCC8"/>
  <circle cx="48" cy="16" r="6" fill="#FFEB3B"/>
  <polygon points="48,10 50,14 54,12 52,16 56,18 52,20 54,24 50,22 48,26 46,22 42,24 44,20 40,18 44,16 42,12 46,14" fill="#FFD700"/>
  <text x="32" y="7" text-anchor="middle" fill="#E65100" font-family="Arial" font-size="6">DESERT</text>
  <text x="32" y="62" text-anchor="middle" fill="#E65100" font-family="Arial" font-size="6">CHAMPION</text>
</svg>