<svg width="64" height="64" viewBox="0 0 64 64" fill="none" xmlns="http://www.w3.org/2000/svg">
  <circle cx="32" cy="32" r="30" fill="#FFC107" stroke="#F57F17" stroke-width="2"/>
  <circle cx="32" cy="20" r="8" fill="#FF5722"/>
  <circle cx="28" cy="18" r="1.5" fill="#000"/>
  <polygon points="26,22 20,28 26,24" fill="#FF9800"/>
  <ellipse cx="32" cy="35" rx="12" ry="8" fill="#795548"/>
  <polygon points="32,28 28,32 36,32" fill="#FF5722"/>
  <ellipse cx="32" cy="40" rx="8" ry="4" fill="#8D6E63"/>
  <polygon points="20,45 16,50 24,48" fill="#6D4C41"/>
  <polygon points="44,45 48,50 40,48" fill="#6D4C41"/>
  <circle cx="48" cy="16" r="8" fill="#FFEB3B" opacity="0.8"/>
  <polygon points="48,8 50,12 54,10 52,14 56,16 52,18 54,22 50,20 48,24 46,20 42,22 44,18 40,16 44,14 42,10 46,12" fill="#FFD700"/>
  <text x="32" y="58" text-anchor="middle" fill="#F57F17" font-family="Arial" font-size="7">EARLY BIRD</text>
</svg>