<svg width="64" height="64" viewBox="0 0 64 64" fill="none" xmlns="http://www.w3.org/2000/svg">
  <circle cx="32" cy="32" r="30" fill="#FFEB3B" stroke="#F57F17" stroke-width="2"/>
  <circle cx="32" cy="24" r="10" fill="#FFD700" stroke="#FFA000" stroke-width="2"/>
  <polygon points="32,14 30,20 24,18 26,24 20,26 26,28 24,34 30,32 32,38 34,32 40,34 38,28 44,26 38,24 40,18 34,20" fill="#FF9800"/>
  <polygon points="32,16 31,20 27,19 28,23 24,24 28,25 27,29 31,28 32,32 33,28 37,29 36,25 40,24 36,23 37,19 33,20" fill="#FFEB3B"/>
  <polygon points="32,18 31.5,20 29,19.5 30,22 27,23 30,24 29,26.5 31.5,26 32,28 32.5,26 35,26.5 34,24 37,23 34,22 35,19.5 32.5,20" fill="#FFF176"/>
  <circle cx="32" cy="22" r="1.5" fill="#FFF"/>
  <rect x="30" y="34" width="4" height="8" fill="#8D6E63"/>
  <rect x="28" y="42" width="8" height="4" fill="#A1887F"/>
  <ellipse cx="32" cy="47" rx="4" ry="1" fill="#5D4037"/>
  <polygon points="16,32 12,28 20,30" fill="#FFD700"/>
  <polygon points="48,32 52,28 44,30" fill="#FFD700"/>
  <text x="32" y="58" text-anchor="middle" fill="#F57F17" font-family="Arial" font-size="6">INSPIRATION</text>
</svg>