<svg width="64" height="64" viewBox="0 0 64 64" fill="none" xmlns="http://www.w3.org/2000/svg">
  <circle cx="32" cy="32" r="30" fill="#4CAF50" stroke="#2E7D32" stroke-width="2"/>
  <polygon points="32,8 38,20 52,20 42,28 46,40 32,34 18,40 22,28 12,20 26,20" fill="#FFD700" stroke="#FFA000" stroke-width="1"/>
  <polygon points="32,12 36,20 44,20 38,26 40,32 32,28 24,32 26,26 20,20 28,20" fill="#FFC107"/>
  <text x="32" y="40" text-anchor="middle" fill="#2E7D32" font-family="Arial" font-size="14" font-weight="bold">13</text>
  <polygon points="16,44 12,40 20,42" fill="#FFEB3B"/>
  <polygon points="48,44 52,40 44,42" fill="#FFEB3B"/>
  <polygon points="32,52 28,48 36,50" fill="#FFD700"/>
  <circle cx="12" cy="16" r="2" fill="#FFEB3B"/>
  <circle cx="52" cy="16" r="2" fill="#FFEB3B"/>
  <polygon points="12,12 13,14 15,13 14,15 16,16 14,17 15,19 13,18 12,20 11,18 9,19 10,17 8,16 10,15 9,13 11,14" fill="#FFD700"/>
  <polygon points="52,12 53,14 55,13 54,15 56,16 54,17 55,19 53,18 52,20 51,18 49,19 50,17 48,16 50,15 49,13 51,14" fill="#FFD700"/>
  <text x="32" y="58" text-anchor="middle" fill="#2E7D32" font-family="Arial" font-size="6">LUCKY</text>
</svg>