<svg width="64" height="64" viewBox="0 0 64 64" fill="none" xmlns="http://www.w3.org/2000/svg">
  <circle cx="32" cy="32" r="30" fill="#263238" stroke="#000000" stroke-width="2"/>
  <polygon points="32,8 38,20 52,20 42,28 46,40 32,34 18,40 22,28 12,20 26,20" fill="#FFD700" stroke="#FFA000" stroke-width="1"/>
  <polygon points="32,12 36,20 44,20 38,26 40,32 32,28 24,32 26,26 20,20 28,20" fill="#FFC107"/>
  <circle cx="48" cy="16" r="4" fill="#37474F"/>
  <circle cx="48" cy="16" r="2" fill="#FFEB3B"/>
  <polygon points="48,8 49,12 53,11 50,15 54,16 50,17 53,21 49,20 48,24 47,20 43,21 46,17 42,16 46,15 43,11 47,12" fill="#FFF176"/>
  <circle cx="20" cy="48" r="1.5" fill="#FFEB3B" opacity="0.6"/>
  <circle cx="44" cy="52" r="1" fill="#FFEB3B" opacity="0.8"/>
  <circle cx="52" cy="44" r="1.5" fill="#FFEB3B" opacity="0.7"/>
  <text x="32" y="48" text-anchor="middle" fill="#FFD700" font-family="Arial" font-size="6">MIDNIGHT</text>
  <text x="32" y="58" text-anchor="middle" fill="#FFD700" font-family="Arial" font-size="6">WARRIOR</text>
</svg>