<svg width="64" height="64" viewBox="0 0 64 64" fill="none" xmlns="http://www.w3.org/2000/svg">
  <circle cx="32" cy="32" r="30" fill="#9C27B0" stroke="#6A1B9A" stroke-width="2"/>
  <rect x="16" y="20" width="32" height="24" fill="#E1BEE7" stroke="#BA68C8" stroke-width="2"/>
  <rect x="18" y="22" width="28" height="20" fill="#F3E5F5"/>
  <text x="32" y="30" text-anchor="middle" fill="#6A1B9A" font-family="monospace" font-size="8" font-weight="bold">121</text>
  <text x="32" y="38" text-anchor="middle" fill="#6A1B9A" font-family="monospace" font-size="8" font-weight="bold">121</text>
  <polygon points="20,28 16,24 24,26" fill="#FFEB3B"/>
  <polygon points="44,28 48,24 40,26" fill="#FFEB3B"/>
  <polygon points="20,36 16,40 24,38" fill="#FFEB3B"/>
  <polygon points="44,36 48,40 40,38" fill="#FFEB3B"/>
  <polygon points="32,8 36,14 42,12 38,18 44,20 38,22 42,28 36,26 32,32 28,26 22,28 26,22 20,20 26,18 22,12 28,14" fill="#FFD700"/>
  <text x="32" y="52" text-anchor="middle" fill="#6A1B9A" font-family="Arial" font-size="6">PALINDROME</text>
  <text x="32" y="7" text-anchor="middle" fill="#6A1B9A" font-family="Arial" font-size="6">POWER</text>
</svg>