<svg width="64" height="64" viewBox="0 0 64 64" fill="none" xmlns="http://www.w3.org/2000/svg">
  <circle cx="32" cy="32" r="30" fill="#FFD700" stroke="#FFA000" stroke-width="2"/>
  <polygon points="32,8 36,20 48,20 39,28 42,40 32,34 22,40 25,28 16,20 28,20" fill="#FF5722" stroke="#D84315" stroke-width="1"/>
  <circle cx="32" cy="28" r="6" fill="#FFEB3B"/>
  <polygon points="32,16 34,20 38,20 35,23 36,27 32,25 28,27 29,23 26,20 30,20" fill="#FFC107"/>
  <circle cx="20" cy="16" r="3" fill="#4CAF50"/>
  <circle cx="44" cy="16" r="3" fill="#4CAF50"/>
  <circle cx="16" cy="32" r="3" fill="#2196F3"/>
  <circle cx="48" cy="32" r="3" fill="#2196F3"/>
  <circle cx="20" cy="48" r="3" fill="#9C27B0"/>
  <circle cx="44" cy="48" r="3" fill="#9C27B0"/>
  <polygon points="32,2 33,6 37,5 35,9 39,10 35,11 37,15 33,14 32,18 31,14 27,15 29,11 25,10 29,9 27,5 31,6" fill="#FFEB3B"/>
  <text x="32" y="54" text-anchor="middle" fill="#FFA000" font-family="Arial" font-size="6">PERFECT</text>
  <text x="32" y="61" text-anchor="middle" fill="#FFA000" font-family="Arial" font-size="6">DAY</text>
</svg>