<svg width="64" height="64" viewBox="0 0 64 64" fill="none" xmlns="http://www.w3.org/2000/svg">
  <circle cx="32" cy="32" r="30" fill="#FF9800" stroke="#E65100" stroke-width="2"/>
  <polygon points="8,32 20,26 20,38" fill="#FFEB3B"/>
  <polygon points="12,32 24,28 24,36" fill="#FFD700"/>
  <polygon points="16,32 28,30 28,34" fill="#FFC107"/>
  <polygon points="20,32 32,31 32,33" fill="#FF9800"/>
  <circle cx="44" cy="24" r="6" fill="#795548"/>
  <circle cx="41" cy="22" r="1.5" fill="#F44336"/>
  <circle cx="47" cy="22" r="1.5" fill="#F44336"/>
  <polygon points="44,26 42,29 46,29" fill="#D84315"/>
  <ellipse cx="44" cy="34" rx="8" ry="6" fill="#8D6E63"/>
  <ellipse cx="44" cy="40" rx="5" ry="4" fill="#A1887F"/>
  <polygon points="36,44 32,49 40,47" fill="#6D4C41"/>
  <polygon points="52,44 56,49 48,47" fill="#6D4C41"/>
  <text x="32" y="44" text-anchor="middle" fill="#E65100" font-family="Arial" font-size="10" font-weight="bold">10</text>
  <text x="32" y="56" text-anchor="middle" fill="#E65100" font-family="Arial" font-size="6">SPEED</text>
</svg>