<svg width="64" height="64" viewBox="0 0 64 64" fill="none" xmlns="http://www.w3.org/2000/svg">
  <circle cx="32" cy="32" r="30" fill="#FF5722" stroke="#D84315" stroke-width="2"/>
  <polygon points="4,32 16,24 16,40" fill="#FFEB3B"/>
  <polygon points="8,32 20,26 20,38" fill="#FFD700"/>
  <polygon points="12,32 24,28 24,36" fill="#FFC107"/>
  <polygon points="16,32 28,30 28,34" fill="#FF9800"/>
  <polygon points="20,32 32,31 32,33" fill="#FF5722"/>
  <polygon points="24,32 36,31.5 36,32.5" fill="#E65100"/>
  <circle cx="48" cy="22" r="6" fill="#795548"/>
  <circle cx="45" cy="20" r="1.5" fill="#F44336"/>
  <circle cx="51" cy="20" r="1.5" fill="#F44336"/>
  <polygon points="48,24 46,27 50,27" fill="#D84315"/>
  <ellipse cx="48" cy="32" rx="8" ry="6" fill="#8D6E63"/>
  <ellipse cx="48" cy="38" rx="5" ry="4" fill="#A1887F"/>
  <polygon points="40,42 36,47 44,45" fill="#6D4C41"/>
  <polygon points="56,42 60,47 52,45" fill="#6D4C41"/>
  <text x="32" y="48" text-anchor="middle" fill="#D84315" font-family="Arial" font-size="6">SPEED</text>
  <text x="32" y="58" text-anchor="middle" fill="#D84315" font-family="Arial" font-size="6">RUNNER</text>
</svg>