<svg width="64" height="64" viewBox="0 0 64 64" fill="none" xmlns="http://www.w3.org/2000/svg">
  <circle cx="32" cy="32" r="30" fill="#795548" stroke="#5D4037" stroke-width="2"/>
  <polygon points="32,8 38,20 52,20 42,28 46,40 32,34 18,40 22,28 12,20 26,20" fill="#FFD700" stroke="#FFA000" stroke-width="1"/>
  <polygon points="32,12 36,20 44,20 38,26 40,32 32,28 24,32 26,26 20,20 28,20" fill="#FFC107"/>
  <rect x="20" y="42" width="24" height="12" fill="#FF9800" stroke="#E65100" stroke-width="1"/>
  <rect x="22" y="44" width="20" height="8" fill="#FFB74D"/>
  <rect x="24" y="45" width="4" height="6" fill="#5D4037"/>
  <rect x="30" y="45" width="4" height="6" fill="#5D4037"/>
  <rect x="36" y="45" width="4" height="6" fill="#5D4037"/>
  <circle cx="26" cy="48" r="1" fill="#FFD700"/>
  <circle cx="32" cy="48" r="1" fill="#FFD700"/>
  <circle cx="38" cy="48" r="1" fill="#FFD700"/>
  <polygon points="16,48 12,44 20,46" fill="#FFEB3B"/>
  <polygon points="48,48 52,44 44,46" fill="#FFEB3B"/>
  <text x="32" y="58" text-anchor="middle" fill="#5D4037" font-family="Arial" font-size="6">WORK</text>
  <text x="32" y="7" text-anchor="middle" fill="#5D4037" font-family="Arial" font-size="6">WARRIOR</text>
</svg>