<svg width="64" height="64" viewBox="0 0 64 64" fill="none" xmlns="http://www.w3.org/2000/svg">
  <circle cx="32" cy="32" r="30" fill="#4CAF50" stroke="#2E7D32" stroke-width="2"/>
  <polygon points="32,8 38,20 52,20 42,28 46,40 32,34 18,40 22,28 12,20 26,20" fill="#FFD700" stroke="#FFA000" stroke-width="1"/>
  <polygon points="32,12 36,20 44,20 38,26 40,32 32,28 24,32 26,26 20,20 28,20" fill="#FFC107"/>
  <path d="M 22,44 C 22,40 26,36 32,36 C 38,36 42,40 42,44 C 42,48 38,52 32,52 C 26,52 22,48 22,44 Z" fill="#F44336"/>
  <rect x="30" y="40" width="4" height="8" fill="#FFEB3B"/>
  <rect x="28" y="42" width="8" height="4" fill="#FFEB3B"/>
  <text x="32" y="46" text-anchor="middle" fill="#2E7D32" font-family="Arial" font-size="8" font-weight="bold">XP</text>
  <polygon points="16,48 12,44 20,46" fill="#FFEB3B"/>
  <polygon points="48,48 52,44 44,46" fill="#FFEB3B"/>
  <text x="32" y="58" text-anchor="middle" fill="#2E7D32" font-family="Arial" font-size="6">XP</text>
  <text x="32" y="7" text-anchor="middle" fill="#2E7D32" font-family="Arial" font-size="6">MEDIC</text>
</svg>