<svg width="64" height="64" viewBox="0 0 64 64" fill="none" xmlns="http://www.w3.org/2000/svg">
  <circle cx="32" cy="32" r="30" fill="#F44336" stroke="#C62828" stroke-width="2"/>
  <polygon points="32,8 38,20 52,20 42,28 46,40 32,34 18,40 22,28 12,20 26,20" fill="#FFD700" stroke="#FFA000" stroke-width="1"/>
  <polygon points="32,12 36,20 44,20 38,26 40,32 32,28 24,32 26,26 20,20 28,20" fill="#FFC107"/>
  <circle cx="32" cy="44" r="8" fill="#263238" stroke="#000000" stroke-width="2"/>
  <text x="32" y="49" text-anchor="middle" fill="#FFEB3B" font-family="Arial" font-size="14" font-weight="bold">0</text>
  <line x1="24" y1="36" x2="40" y2="52" stroke="#FFEB3B" stroke-width="3"/>
  <polygon points="16,48 12,44 20,46" fill="#FFEB3B"/>
  <polygon points="48,48 52,44 44,46" fill="#FFEB3B"/>
  <text x="32" y="58" text-anchor="middle" fill="#C62828" font-family="Arial" font-size="5">ZERO TOLERANCE</text>
  <text x="32" y="7" text-anchor="middle" fill="#C62828" font-family="Arial" font-size="6">ZERO</text>
</svg>