<svg width="64" height="64" viewBox="0 0 64 64" fill="none" xmlns="http://www.w3.org/2000/svg">
  <circle cx="32" cy="32" r="30" fill="#E91E63" stroke="#AD1457" stroke-width="2"/>
  <polygon points="32,8 37,20 50,20 40,28 44,40 32,34 20,40 24,28 14,20 27,20" fill="#FFD700" stroke="#FFA000" stroke-width="1"/>
  <polygon points="32,12 35,20 42,20 37,24 39,32 32,28 25,32 27,24 22,20 29,20" fill="#FFC107"/>
  <rect x="26" y="42" width="12" height="8" fill="#8D6E63" stroke="#5D4037" stroke-width="1"/>
  <rect x="28" y="44" width="8" height="4" fill="#A1887F"/>
  <polygon points="30,46 32,48 34,46" fill="#FFEB3B"/>
  <circle cx="16" cy="16" r="3" fill="#FF5722"/>
  <circle cx="48" cy="16" r="3" fill="#FF5722"/>
  <polygon points="16,10 17,14 21,13 18,17 22,18 18,19 21,23 17,22 16,26 15,22 11,23 14,19 10,18 14,17 11,13 15,14" fill="#FFEB3B"/>
  <polygon points="48,10 49,14 53,13 50,17 54,18 50,19 53,23 49,22 48,26 47,22 43,23 46,19 42,18 46,17 43,13 47,14" fill="#FFEB3B"/>
  <text x="32" y="58" text-anchor="middle" fill="#AD1457" font-family="Arial" font-size="6">ANNIVERSARY</text>
  <text x="32" y="6" text-anchor="middle" fill="#AD1457" font-family="Arial" font-size="6">HERO</text>
</svg>