<svg width="64" height="64" viewBox="0 0 64 64" fill="none" xmlns="http://www.w3.org/2000/svg">
  <circle cx="32" cy="32" r="30" fill="#FF5722" stroke="#D84315" stroke-width="2"/>
  <polygon points="32,8 38,20 52,20 42,28 46,40 32,34 18,40 22,28 12,20 26,20" fill="#FFD700" stroke="#FFA000" stroke-width="1"/>
  <polygon points="32,12 36,20 44,20 38,26 40,32 32,28 24,32 26,26 20,20 28,20" fill="#FFC107"/>
  <rect x="16" y="42" width="32" height="12" fill="#263238" stroke="#000000" stroke-width="1"/>
  <rect x="18" y="44" width="28" height="8" fill="#37474F"/>
  <rect x="20" y="46" width="4" height="4" fill="#4CAF50"/>
  <rect x="26" y="46" width="4" height="4" fill="#4CAF50"/>
  <rect x="32" y="46" width="4" height="4" fill="#4CAF50"/>
  <rect x="38" y="46" width="4" height="4" fill="#FF9800"/>
  <text x="32" y="7" text-anchor="middle" fill="#D84315" font-family="Arial" font-size="6">DAILY</text>
  <text x="32" y="62" text-anchor="middle" fill="#D84315" font-family="Arial" font-size="6">DOMINATOR</text>
</svg>