<svg width="64" height="64" viewBox="0 0 64 64" fill="none" xmlns="http://www.w3.org/2000/svg">
  <circle cx="32" cy="32" r="30" fill="#607D8B" stroke="#37474F" stroke-width="2"/>
  <circle cx="20" cy="20" r="8" fill="#4CAF50"/>
  <circle cx="44" cy="20" r="8" fill="#FFEB3B"/>
  <circle cx="20" cy="44" r="8" fill="#FF9800"/>
  <circle cx="44" cy="44" r="8" fill="#2196F3"/>
  <polygon points="20,14 21,18 25,17 22,21 26,22 22,23 25,27 21,26 20,30 19,26 15,27 18,23 14,22 18,21 15,17 19,18" fill="#66BB6A"/>
  <circle cx="44" cy="20" r="4" fill="#FFD700"/>
  <polygon points="44,16 45,18 47,17 46,19 48,20 46,21 47,23 45,22 44,24 43,22 41,23 42,21 40,20 42,19 41,17 43,18" fill="#FFF176"/>
  <polygon points="20,38 21,42 25,41 22,45 26,46 22,47 25,51 21,50 20,54 19,50 15,51 18,47 14,46 18,45 15,41 19,42" fill="#FFB74D"/>
  <polygon points="44,38 45,42 49,41 46,45 50,46 46,47 49,51 45,50 44,54 43,50 39,51 42,47 38,46 42,45 39,41 43,42" fill="#42A5F5"/>
  <circle cx="32" cy="32" r="4" fill="#FFEB3B"/>
  <text x="32" y="30" text-anchor="middle" fill="#37474F" font-family="Arial" font-size="8" font-weight="bold">4</text>
  <text x="32" y="58" text-anchor="middle" fill="#37474F" font-family="Arial" font-size="6">SEASONS</text>
</svg>