<svg width="64" height="64" viewBox="0 0 64 64" fill="none" xmlns="http://www.w3.org/2000/svg">
  <circle cx="32" cy="32" r="30" fill="#F44336" stroke="#C62828" stroke-width="2"/>
  <polygon points="32,10 38,22 50,22 41,30 44,42 32,36 20,42 23,30 14,22 26,22" fill="#FFD700" stroke="#FFA000" stroke-width="1"/>
  <polygon points="32,14 35,22 40,22 37,25 38,30 32,27 26,30 27,25 24,22 29,22" fill="#FFC107"/>
  <rect x="20" y="45" width="24" height="4" fill="#8D6E63" stroke="#5D4037" stroke-width="1"/>
  <polygon points="18,49 22,45 26,49" fill="#FFEB3B"/>
  <polygon points="38,49 42,45 46,49" fill="#FFEB3B"/>
  <rect x="28" y="47" width="8" height="1" fill="#FFD700"/>
  <circle cx="16" cy="20" r="3" fill="#FF9800"/>
  <circle cx="48" cy="20" r="3" fill="#FF9800"/>
  <polygon points="16,14 17,18 21,17 18,21 22,22 18,23 21,27 17,26 16,30 15,26 11,27 14,23 10,22 14,21 11,17 15,18" fill="#FFEB3B"/>
  <polygon points="48,14 49,18 53,17 50,21 54,22 50,23 53,27 49,26 48,30 47,26 43,27 46,23 42,22 46,21 43,17 47,18" fill="#FFEB3B"/>
  <text x="32" y="38" text-anchor="middle" fill="#C62828" font-family="Arial" font-size="8" font-weight="bold">GOAL</text>
  <text x="32" y="60" text-anchor="middle" fill="#C62828" font-family="Arial" font-size="6">CRUSHER</text>
</svg>