<svg width="64" height="64" viewBox="0 0 64 64" fill="none" xmlns="http://www.w3.org/2000/svg">
  <circle cx="32" cy="32" r="30" fill="#4CAF50" stroke="#2E7D32" stroke-width="2"/>
  <rect x="16" y="20" width="32" height="24" fill="#66BB6A" stroke="#388E3C" stroke-width="2"/>
  <rect x="18" y="22" width="28" height="20" fill="#81C784"/>
  <rect x="20" y="24" width="4" height="4" fill="#4CAF50"/>
  <rect x="26" y="24" width="4" height="4" fill="#4CAF50"/>
  <rect x="32" y="24" width="4" height="4" fill="#4CAF50"/>
  <rect x="38" y="24" width="4" height="4" fill="#4CAF50"/>
  <rect x="20" y="30" width="4" height="4" fill="#4CAF50"/>
  <rect x="26" y="30" width="4" height="4" fill="#4CAF50"/>
  <rect x="32" y="30" width="4" height="4" fill="#4CAF50"/>
  <rect x="20" y="36" width="4" height="4" fill="#E8F5E8"/>
  <rect x="26" y="36" width="4" height="4" fill="#E8F5E8"/>
  <path d="M 20,44 C 20,40 24,36 32,36 C 40,36 44,40 44,44 C 44,48 40,52 32,52 C 24,52 20,48 20,44 Z" fill="#F44336"/>
  <rect x="30" y="40" width="4" height="8" fill="#FFEB3B"/>
  <rect x="28" y="42" width="8" height="4" fill="#FFEB3B"/>
  <text x="32" y="16" text-anchor="middle" fill="#2E7D32" font-family="Arial" font-size="6">HEALTHY</text>
  <text x="32" y="60" text-anchor="middle" fill="#2E7D32" font-family="Arial" font-size="6">WEEK</text>
</svg>