<svg width="64" height="64" viewBox="0 0 64 64" fill="none" xmlns="http://www.w3.org/2000/svg">
  <circle cx="32" cy="32" r="30" fill="#2196F3" stroke="#1976D2" stroke-width="2"/>
  <polygon points="32,8 38,20 52,20 42,28 46,40 32,34 18,40 22,28 12,20 26,20" fill="#FFD700" stroke="#FFA000" stroke-width="1"/>
  <polygon points="32,12 36,20 44,20 38,26 40,32 32,28 24,32 26,26 20,20 28,20" fill="#FFC107"/>
  <circle cx="32" cy="44" r="8" fill="#FFEB3B" stroke="#F57F17" stroke-width="2"/>
  <rect x="30" y="40" width="4" height="8" fill="#FF5722"/>
  <rect x="28" y="42" width="8" height="4" fill="#FF5722"/>
  <circle cx="26" cy="38" r="2" fill="#4CAF50"/>
  <circle cx="38" cy="38" r="2" fill="#4CAF50"/>
  <polygon points="20,50 16,46 24,48" fill="#FFEB3B"/>
  <polygon points="44,50 48,46 40,48" fill="#FFEB3B"/>
  <text x="32" y="7" text-anchor="middle" fill="#1976D2" font-family="Arial" font-size="6">HELPFUL</text>
  <text x="32" y="62" text-anchor="middle" fill="#1976D2" font-family="Arial" font-size="6">HERO</text>
</svg>