<svg width="64" height="64" viewBox="0 0 64 64" fill="none" xmlns="http://www.w3.org/2000/svg">
  <circle cx="32" cy="32" r="30" fill="#2196F3" stroke="#1976D2" stroke-width="2"/>
  <rect x="16" y="16" width="32" height="24" fill="#BBDEFB" stroke="#42A5F5" stroke-width="2"/>
  <rect x="18" y="18" width="28" height="20" fill="#E3F2FD"/>
  <text x="22" y="26" fill="#1976D2" font-family="Arial" font-size="6">FEB</text>
  <text x="24" y="34" fill="#1976D2" font-family="Arial" font-size="12" font-weight="bold">29</text>
  <polygon points="36,22 32,18 40,20" fill="#4CAF50"/>
  <polygon points="36,30 40,26 32,28" fill="#4CAF50"/>
  <circle cx="38" cy="32" r="3" fill="#FFEB3B"/>
  <text x="38" y="35" text-anchor="middle" fill="#FF5722" font-family="Arial" font-size="6" font-weight="bold">!</text>
  <polygon points="32,8 36,14 42,12 38,18 44,20 38,22 42,28 36,26 32,32 28,26 22,28 26,22 20,20 26,18 22,12 28,14" fill="#FFD700"/>
  <text x="32" y="50" text-anchor="middle" fill="#1976D2" font-family="Arial" font-size="6">LEAP</text>
  <text x="32" y="58" text-anchor="middle" fill="#1976D2" font-family="Arial" font-size="6">DAY</text>
</svg>