<svg width="64" height="64" viewBox="0 0 64 64" fill="none" xmlns="http://www.w3.org/2000/svg">
  <circle cx="32" cy="32" r="30" fill="#9C27B0" stroke="#6A1B9A" stroke-width="2"/>
  <polygon points="32,8 38,20 52,20 42,28 46,40 32,34 18,40 22,28 12,20 26,20" fill="#FFD700" stroke="#FFA000" stroke-width="1"/>
  <polygon points="32,12 36,20 44,20 38,26 40,32 32,28 24,32 26,26 20,20 28,20" fill="#FFC107"/>
  <circle cx="32" cy="22" r="6" fill="#FFAB91"/>
  <circle cx="29" cy="20" r="1" fill="#5D4037"/>
  <circle cx="35" cy="20" r="1" fill="#5D4037"/>
  <polygon points="32,24 30,26 34,26" fill="#D84315"/>
  <rect x="20" y="42" width="24" height="8" fill="#FFEB3B" stroke="#F57F17" stroke-width="1"/>
  <rect x="22" y="44" width="20" height="4" fill="#FFF176"/>
  <rect x="24" y="45" width="4" height="2" fill="#F44336"/>
  <rect x="30" y="45" width="4" height="2" fill="#FF9800"/>
  <rect x="36" y="45" width="4" height="2" fill="#4CAF50"/>
  <circle cx="32" cy="36" r="3" fill="#E1BEE7"/>
  <text x="32" y="58" text-anchor="middle" fill="#6A1B9A" font-family="Arial" font-size="6">PRIORITY</text>
  <text x="32" y="7" text-anchor="middle" fill="#6A1B9A" font-family="Arial" font-size="6">PROPHET</text>
</svg>