<svg width="64" height="64" viewBox="0 0 64 64" fill="none" xmlns="http://www.w3.org/2000/svg">
  <circle cx="32" cy="32" r="30" fill="#8BC34A" stroke="#558B2F" stroke-width="2"/>
  <polygon points="32,8 28,20 16,20 25,28 22,40 32,34 42,40 39,28 48,20 36,20" fill="#FFD700" stroke="#FFA000" stroke-width="1"/>
  <polygon points="32,12 29,20 23,20 27,24 25,30 32,26 39,30 37,24 41,20 35,20" fill="#FFC107"/>
  <rect x="20" y="42" width="24" height="12" fill="#795548" stroke="#5D4037" stroke-width="1"/>
  <rect x="22" y="44" width="20" height="8" fill="#8D6E63"/>
  <rect x="24" y="46" width="4" height="4" fill="#FFEB3B"/>
  <rect x="30" y="46" width="4" height="4" fill="#FFEB3B"/>
  <rect x="36" y="46" width="4" height="4" fill="#FFEB3B"/>
  <polygon points="32,54 28,58 36,58" fill="#5D4037"/>
  <circle cx="12" cy="16" r="2" fill="#FF5722"/>
  <circle cx="52" cy="16" r="2" fill="#FF5722"/>
  <circle cx="8" cy="32" r="2" fill="#FF9800"/>
  <circle cx="56" cy="32" r="2" fill="#FF9800"/>
  <polygon points="12,12 13,14 15,13 14,15 16,16 14,17 15,19 13,18 12,20 11,18 9,19 10,17 8,16 10,15 9,13 11,14" fill="#FFEB3B"/>
  <polygon points="52,12 53,14 55,13 54,15 56,16 54,17 55,19 53,18 52,20 51,18 49,19 50,17 48,16 50,15 49,13 51,14" fill="#FFEB3B"/>
  <text x="32" y="7" text-anchor="middle" fill="#558B2F" font-family="Arial" font-size="6">PROJECT</text>
  <text x="32" y="62" text-anchor="middle" fill="#558B2F" font-family="Arial" font-size="6">PIONEER</text>
</svg>