<svg width="64" height="64" viewBox="0 0 64 64" fill="none" xmlns="http://www.w3.org/2000/svg">
  <circle cx="32" cy="32" r="30" fill="#FF9800" stroke="#E65100" stroke-width="2"/>
  <polygon points="32,8 38,20 52,20 42,28 46,40 32,34 18,40 22,28 12,20 26,20" fill="#FFD700" stroke="#FFA000" stroke-width="1"/>
  <polygon points="32,12 36,20 44,20 38,26 40,32 32,28 24,32 26,26 20,20 28,20" fill="#FFC107"/>
  <path d="M 16,44 Q 24,40 32,44 Q 40,48 48,44" stroke="#4CAF50" stroke-width="3" fill="none"/>
  <polygon points="14,42 18,38 22,42" fill="#66BB6A"/>
  <polygon points="30,42 34,38 38,42" fill="#66BB6A"/>
  <polygon points="46,42 50,38 54,42" fill="#66BB6A"/>
  <circle cx="16" cy="16" r="2" fill="#E91E63"/>
  <circle cx="32" cy="8" r="2" fill="#2196F3"/>
  <circle cx="48" cy="16" r="2" fill="#9C27B0"/>
  <text x="32" y="52" text-anchor="middle" fill="#E65100" font-family="Arial" font-size="6">TREND</text>
  <text x="32" y="62" text-anchor="middle" fill="#E65100" font-family="Arial" font-size="6">SETTER</text>
</svg>