<svg width="64" height="64" viewBox="0 0 64 64" fill="none" xmlns="http://www.w3.org/2000/svg">
  <circle cx="32" cy="32" r="30" fill="#E91E63" stroke="#AD1457" stroke-width="2"/>
  <rect x="20" y="15" width="24" height="16" fill="#8BC34A" stroke="#558B2F" stroke-width="1"/>
  <rect x="22" y="17" width="20" height="12" fill="#4CAF50"/>
  <polygon points="32,10 28,15 36,15" fill="#FF5722"/>
  <rect x="18" y="31" width="28" height="3" fill="#795548"/>
  <circle cx="26" cy="40" r="4" fill="#FF9800"/>
  <circle cx="38" cy="40" r="4" fill="#FF9800"/>
  <rect x="24" y="44" width="4" height="8" fill="#8D6E63"/>
  <rect x="36" y="44" width="4" height="8" fill="#8D6E63"/>
  <rect x="22" y="52" width="8" height="3" fill="#5D4037"/>
  <rect x="34" y="52" width="8" height="3" fill="#5D4037"/>
  <polygon points="12,20 8,16 16,18" fill="#FFC107"/>
  <polygon points="52,20 56,16 48,18" fill="#FFC107"/>
  <text x="32" y="12" text-anchor="middle" fill="#AD1457" font-family="Arial" font-size="6">SAT SUN</text>
  <text x="32" y="60" text-anchor="middle" fill="#AD1457" font-family="Arial" font-size="6">WARRIOR</text>
</svg>