<svg width="64" height="64" viewBox="0 0 64 64" fill="none" xmlns="http://www.w3.org/2000/svg">
  <circle cx="32" cy="32" r="30" fill="#9C27B0" stroke="#6A1B9A" stroke-width="2"/>
  <polygon points="32,8 38,20 52,20 42,28 46,40 32,34 18,40 22,28 12,20 26,20" fill="#FFD700" stroke="#FFA000" stroke-width="1"/>
  <polygon points="32,12 36,20 44,20 38,26 40,32 32,28 24,32 26,26 20,20 28,20" fill="#FFC107"/>
  <circle cx="32" cy="44" r="8" fill="#FFEB3B" stroke="#F57F17" stroke-width="2"/>
  <polygon points="32,36 30,40 26,38 28,42 24,44 28,46 26,50 30,48 32,52 34,48 38,50 36,46 40,44 36,42 38,38 34,40" fill="#FF9800"/>
  <circle cx="32" cy="44" r="3" fill="#FFC107"/>
  <text x="32" y="47" text-anchor="middle" fill="#6A1B9A" font-family="Arial" font-size="8" font-weight="bold">*</text>
  <text x="32" y="58" text-anchor="middle" fill="#6A1B9A" font-family="Arial" font-size="6">WEEKLY</text>
  <text x="32" y="7" text-anchor="middle" fill="#6A1B9A" font-family="Arial" font-size="6">WONDER</text>
</svg>