<svg width="64" height="64" viewBox="0 0 64 64" fill="none" xmlns="http://www.w3.org/2000/svg">
  <circle cx="32" cy="32" r="30" fill="#FF5722" stroke="#D84315" stroke-width="2"/>
  <polygon points="32,8 38,20 52,20 42,28 46,40 32,34 18,40 22,28 12,20 26,20" fill="#FFD700" stroke="#FFA000" stroke-width="1"/>
  <polygon points="32,12 36,20 44,20 38,26 40,32 32,28 24,32 26,26 20,20 28,20" fill="#FFC107"/>
  <rect x="16" y="42" width="32" height="12" fill="#8BC34A" stroke="#558B2F" stroke-width="1"/>
  <rect x="18" y="44" width="28" height="8" fill="#AED581"/>
  <rect x="20" y="45" width="4" height="6" fill="#4CAF50"/>
  <rect x="26" y="45" width="4" height="6" fill="#4CAF50"/>
  <rect x="32" y="45" width="4" height="6" fill="#4CAF50"/>
  <rect x="38" y="45" width="4" height="6" fill="#4CAF50"/>
  <rect x="44" y="45" width="2" height="6" fill="#4CAF50"/>
  <polygon points="22,47 24,49 28,45" stroke="#2E7D32" stroke-width="1" fill="none"/>
  <polygon points="28,47 30,49 34,45" stroke="#2E7D32" stroke-width="1" fill="none"/>
  <polygon points="34,47 36,49 40,45" stroke="#2E7D32" stroke-width="1" fill="none"/>
  <polygon points="40,47 42,49 46,45" stroke="#2E7D32" stroke-width="1" fill="none"/>
  <text x="32" y="58" text-anchor="middle" fill="#D84315" font-family="Arial" font-size="6">WEEKLY</text>
  <text x="32" y="7" text-anchor="middle" fill="#D84315" font-family="Arial" font-size="6">WARRIOR</text>
</svg>